Coordinates
version=1
nRows=29
nColumns=24
inDegrees=yes

Units are S.I. units (second, meters, Newtons, ...)
Angles are in degrees.

endheader
time	pelvis_tilt	pelvis_list	pelvis_rotation	pelvis_tx	pelvis_ty	pelvis_tz	hip_flexion_r	hip_adduction_r	hip_rotation_r	knee_angle_r	ankle_angle_r	subtalar_angle_r	mtp_angle_r	hip_flexion_l	hip_adduction_l	hip_rotation_l	knee_angle_l	ankle_angle_l	subtalar_angle_l	mtp_angle_l	lumbar_extension	lumbar_bending	lumbar_rotation
      0.92933333	      2.10228314	      2.10231127	     -5.42074177	     -0.18839781	      1.00619732	      0.29633796	    -11.37937546	     -1.10947493	     -1.83221620	    -13.37463766	     16.07119349	     -2.98019751	      8.20299484	     17.38249327	      1.32144679	    -11.04668012	      3.45558467	     -1.62138171	     -7.03886450	      4.66469037	    -10.24784941	     -2.02968157	     10.71004443
      0.93350000	      2.18139492	      2.14852930	     -5.47491431	     -0.18248306	      1.00572610	      0.29603932	    -11.56096603	     -1.23448257	     -1.86269998	    -13.91298629	     16.18829115	     -2.89169702	      8.11170344	     17.24710487	      1.40423986	    -10.93591518	      3.54172280	     -1.48129778	     -7.08389414	      4.71194274	    -10.29515636	     -2.11953935	     10.85098907
      0.93766667	      2.21556032	      2.20314695	     -5.51138747	     -0.17654654	      1.00523421	      0.29573987	    -11.68016634	     -1.35471405	     -1.86512297	    -14.47835510	     16.20686189	     -2.96129705	      8.07879805	     17.18883763	      1.48908601	    -10.80367764	      3.48832072	     -1.32395653	     -7.12946070	      4.73537544	    -10.28515282	     -2.21823948	     10.89420662
      0.94183333	      2.28189462	      2.28593421	     -5.56569243	     -0.17059232	      1.00481928	      0.29542666	    -11.79755738	     -1.52255760	     -1.87926085	    -15.11467876	     16.28801904	     -2.87927256	      8.02434976	     17.07956674	      1.60629003	    -10.60788128	      3.39675476	     -1.22086740	     -7.24726652	      4.78709104	    -10.32298839	     -2.34847889	     11.01546254
      0.94600000	      2.34012206	      2.36588835	     -5.62107526	     -0.16460492	      1.00442938	      0.29509284	    -11.87316241	     -1.69409291	     -1.92974711	    -15.81598056	     16.31216563	     -2.80166482	      7.96830244	     16.97692328	      1.72197116	    -10.38667547	      3.23922011	     -1.16365705	     -7.42441971	      4.86550509	    -10.32430730	     -2.46805624	     11.12525065
      0.95016667	      2.40713839	      2.47109378	     -5.66972067	     -0.15858992	      1.00409731	      0.29478050	    -11.95115513	     -1.88435240	     -1.92582234	    -16.52839190	     16.28830766	     -2.82282888	      7.94753303	     16.88450980	      1.86082347	    -10.16428598	      2.97466522	     -1.09965373	     -7.55611789	      4.92094443	    -10.34823834	     -2.63969846	     11.18412363
      0.95433333	      2.45662235	      2.56683315	     -5.72586415	     -0.15256651	      1.00375543	      0.29441673	    -11.95614022	     -2.08050381	     -1.98180265	    -17.34904868	     16.26848841	     -2.71657298	      7.94183741	     16.79310271	      1.99520906	     -9.86396951	      2.69261358	     -1.12680906	     -7.82317336	      5.02319619	    -10.33649865	     -2.77434899	     11.29041510
      0.95850000	      2.53100599	      2.68789404	     -5.77826477	     -0.14651557	      1.00349312	      0.29405623	    -11.97195945	     -2.30370536	     -2.02118258	    -18.19576223	     16.19855141	     -2.65747594	      7.96790906	     16.68284518	      2.16018715	     -9.56117818	      2.34436084	     -1.18903241	     -8.09622135	      5.14879475	    -10.35754730	     -2.95588219	     11.36298419
      0.96266667	      2.60413930	      2.81403477	     -5.83108393	     -0.14043780	      1.00325341	      0.29368273	    -11.95511469	     -2.53478736	     -2.05601470	    -19.10296398	     16.09532089	     -2.62270050	      8.02533371	     16.57382719	      2.33297338	     -9.24593582	      1.94989908	     -1.26417510	     -8.36736346	      5.27199831	    -10.36630325	     -3.14147405	     11.42289068
      0.96683333	      2.65097782	      2.94656785	     -5.87864078	     -0.13434257	      1.00301568	      0.29327882	    -11.87727360	     -2.77307525	     -2.09855847	    -20.06932876	     15.94211438	     -2.58182785	      8.12280020	     16.50044415	      2.51445311	     -8.91524739	      1.50404525	     -1.39638249	     -8.68092882	      5.40855274	    -10.34697093	     -3.33067005	     11.48036623
      0.97100000	      2.72803741	      3.08701661	     -5.91986905	     -0.12824033	      1.00283698	      0.29285135	    -11.80256784	     -3.02650160	     -2.15770345	    -21.08941995	     15.74884596	     -2.51987128	      8.29429189	     16.39249441	      2.71398707	     -8.55357968	      1.03451165	     -1.58585034	     -9.04894239	      5.58754696	    -10.36225427	     -3.52868710	     11.53069236
      0.97516667	      2.79412826	      3.23931089	     -5.96866207	     -0.12209979	      1.00267263	      0.29241584	    -11.67859421	     -3.29547968	     -2.20835706	    -22.17548363	     15.50807294	     -2.51705568	      8.46887806	     16.29341972	      2.92609675	     -8.23199253	      0.54310894	     -1.76497015	     -9.35746081	      5.73484383	    -10.35185483	     -3.74539971	     11.55793538
      0.97933333	      2.87149743	      3.39476374	     -6.00258592	     -0.11597022	      1.00253898	      0.29193572	    -11.53428574	     -3.57303293	     -2.28928092	    -23.32028952	     15.21959418	     -2.46958732	      8.72988111	     16.18715942	      3.15234798	     -7.86989175	      0.02781271	     -2.02255160	     -9.76152552	      5.91653984	    -10.36260356	     -3.95917935	     11.58076290
      0.98350000	      2.93308227	      3.55454937	     -6.03750629	     -0.10981763	      1.00241787	      0.29145737	    -11.33948431	     -3.85359410	     -2.35643182	    -24.51996296	     14.86216938	     -2.47764261	      9.03221886	     16.09949710	      3.38102087	     -7.54399830	     -0.50949387	     -2.28192285	    -10.11751268	      6.09603124	    -10.34538018	     -4.17875906	     11.58869131
      0.98766667	      3.00510462	      3.71494459	     -6.04691162	     -0.10369687	      1.00232041	      0.29091744	    -11.12913057	     -4.13575198	     -2.44803921	    -25.76532278	     14.46400802	     -2.44175605	      9.53101715	     16.01618358	      3.62252843	     -7.18281725	     -1.08253349	     -2.60757626	    -10.57697848	      6.35011676	    -10.36565880	     -4.40140683	     11.58729302
      0.99183333	      3.10697892	      3.88157860	     -6.06226427	     -0.09752294	      1.00230045	      0.29039067	    -10.92718471	     -4.42987889	     -2.53540221	    -27.03448017	     13.86751214	     -2.63591687	     15.31810021	     15.89069332	      3.86873642	     -6.92134848	     -1.65013521	     -2.86732662	    -10.83329745	      8.96124567	    -10.39688461	     -4.63183983	     11.54001274
      0.99600000	      3.16564229	      4.05759635	     -6.08482782	     -0.09137700	      1.00222691	      0.28984115	    -10.62077029	     -4.73958131	     -2.62474701	    -28.41204385	     13.34449636	     -2.65607194	     15.36324380	     15.82135306	      4.12053134	     -6.68560100	     -2.24071995	     -3.15969052	    -11.11303043	      8.98537593	    -10.37730026	     -4.86222066	     11.54040648
      1.00016667	      3.23482369	      4.23614339	     -6.08450308	     -0.08523761	      1.00218346	      0.28926117	    -10.30183643	     -5.05079277	     -2.73514061	    -29.82720661	     12.74490350	     -2.70574748	     15.52190790	     15.72941365	      4.38665194	     -6.37627534	     -2.81370526	     -3.44379935	    -11.49228099	      9.02622763	    -10.37723714	     -5.09778690	     11.50854768
      1.00433333	      3.34324322	      4.43246884	     -6.10008459	     -0.07909813	      1.00220991	      0.28870247	     -9.99329365	     -5.38770525	     -2.81882822	    -31.28141931	     12.07892943	     -2.81466938	     15.60011883	     15.60490540	      4.66436339	     -6.21535489	     -3.40792044	     -3.69399378	    -11.64446056	      9.04010132	    -10.42038808	     -5.36538285	     11.45673484
      1.00850000	      3.37010584	      4.61328634	     -6.09602064	     -0.07300880	      1.00212940	      0.28809012	     -9.54519836	     -5.70729700	     -2.93441496	    -32.82494744	     11.41511673	     -2.88576659	     15.79714607	     15.56911258	      4.92502672	     -5.99628960	     -4.00163099	     -4.00322702	    -11.99418584	      9.06367724	    -10.37085823	     -5.59094475	     11.37592792
      1.01266667	      3.48098389	      4.81839644	     -6.07819374	     -0.06691709	      1.00216984	      0.28744798	     -9.17692406	     -6.06708481	     -3.08046482	    -34.36755920	     10.63038732	     -3.04241895	     19.79399310	     15.43230770	      5.22760241	     -5.76617906	     -4.57572746	     -4.24328303	    -12.30120271	      9.43157463	    -10.42706874	     -5.86161277	     11.30091595
      1.01683333	      3.54810273	      5.00849830	     -6.07423953	     -0.06085640	      1.00218538	      0.28684240	     -8.72619579	     -6.39986522	     -3.16727591	    -35.95264731	      9.80112652	     -3.21629552	     19.81839393	     15.35384759	      5.49403337	     -5.65274545	     -5.17910310	     -4.45315359	    -12.45330081	      9.43160293	    -10.42906959	     -6.10670097	     11.21564799
      1.02100000	      3.62107301	      5.21188773	     -6.05650075	     -0.05482249	      1.00220214	      0.28620005	     -8.25173587	     -6.75495992	     -3.28300099	    -37.58178978	      8.97378648	     -3.38503153	     19.87291364	     15.26488643	      5.78103141	     -5.52171457	     -5.77226804	     -4.62672451	    -12.64116516	      9.42803362	    -10.44025851	     -6.36821215	     11.11008787
      1.02516667	      3.67897989	      5.41732906	     -6.03594554	     -0.04882266	      1.00221576	      0.28555919	     -7.73413988	     -7.11149947	     -3.38966362	    -39.23609506	      8.11907874	     -3.58769234	     19.94535335	     15.18604910	      6.06668879	     -5.40419074	     -6.35307858	     -4.76689768	    -12.81221110	      9.41972101	    -10.43868709	     -6.62676171	     10.99674455
      1.02933333	      3.75782229	      5.63269899	     -6.01427052	     -0.04285227	      1.00227070	      0.28491462	     -7.21702531	     -7.48361853	     -3.49559313	    -40.90800242	      7.25677228	     -3.81639523	     20.01610282	     15.07884918	      6.36407724	     -5.30736007	     -6.92241214	     -4.87234498	    -12.95077972	      9.40699028	    -10.46638284	     -6.89704404	     10.87734811
      1.03350000	      3.81920549	      5.84305010	     -5.98580885	     -0.03692464	      1.00230392	      0.28426411	     -6.66054881	     -7.84827598	     -3.59549258	    -42.59350501	      6.39453610	     -4.07535725	     20.07651601	     14.98765425	      6.65387184	     -5.21749110	     -7.48807709	     -4.93149212	    -13.06955300	      9.39040053	    -10.47850119	     -7.16387790	     10.74578754
      1.03766667	      3.88621393	      6.06115276	     -5.95563799	     -0.03103128	      1.00236342	      0.28360708	     -6.09149644	     -8.22470203	     -3.69651890	    -44.28433915	      5.55202491	     -4.36849564	     20.12117177	     14.88199474	      6.95231282	     -5.14504415	     -8.03657849	     -4.95074339	    -13.17456990	      9.36804738	    -10.49813088	     -7.42991275	     10.60498367
      1.04183333	      3.96057655	      6.28121296	     -5.92974995	     -0.02518763	      1.00244962	      0.28296869	     -5.51442629	     -8.59960776	     -3.77382879	    -45.96843357	      4.74223313	     -4.68842610	     20.13130597	     14.75388273	      7.25257795	     -5.07021682	     -8.55575121	     -4.93002733	    -13.24635770	      9.34684249	    -10.53573948	     -7.71520830	     10.46728633
      1.04600000	      4.00294192	      6.49317921	     -5.89071222	     -0.01938180	      1.00250679	      0.28231084	     -4.89062839	     -8.96209075	     -3.85773264	    -47.64605655	      3.97539966	     -5.06280888	     20.10722498	     14.66118027	      7.54113644	     -5.01674633	     -9.08021640	     -4.87597662	    -13.33136847	      9.31293934	    -10.53754485	     -7.96233778	     10.29923261
